<?xml version="1.0" encoding="utf-8"?>
<!-- Generator: Adobe Illustrator 22.0.1, SVG Export Plug-In . SVG Version: 6.00 Build 0)  -->
<svg version="1.1" xmlns="http://www.w3.org/2000/svg" xmlns:xlink="http://www.w3.org/1999/xlink" x="0px" y="0px"
	 viewBox="0 0 1024 1024" style="enable-background:new 0 0 1024 1024;" xml:space="preserve">
<style type="text/css">
	.st0{fill:#030104;}
</style>
<g id="Layer_1">
	<path d="M358.4,51.2l-93.7,102.4H102.4C46.1,153.6,0,199.7,0,256v614.4c0,56.3,46.1,102.4,102.4,102.4h819.2
		c56.3,0,102.4-46.1,102.4-102.4V256c0-56.3-46.1-102.4-102.4-102.4H759.3L665.6,51.2H358.4z M512,819.2c-141.3,0-256-114.7-256-256
		s114.7-256,256-256s256,114.7,256,256S653.3,819.2,512,819.2z"/>
</g>
<g id="Layer_2">
	<g>
		<path class="st0" d="M719.4,549.3c-6.8-103.8-89.8-186.7-193.5-193.6v-0.5H512h-13.9v0.5c-103.8,6.8-186.7,89.8-193.6,193.6h-0.5
			v13.9v13.9h0.5c6.8,103.8,89.8,186.7,193.6,193.5v0.5H512h13.9v-0.5c103.8-6.8,186.7-89.8,193.5-193.5h0.5v-13.9v-13.9H719.4z
			 M434.2,400.6c-13.4,17.8-24.5,40.1-32.6,65.6h-41.5C378.2,438,403.9,415.2,434.2,400.6z M345.6,493.9h48.7
			c-3.7,17.5-6.1,36.1-6.8,55.4h-55.2C333.8,529.8,338.4,511.2,345.6,493.9z M332.3,577.1h55.2c0.7,19.3,3.1,37.9,6.8,55.4h-48.7
			C338.4,615.2,333.8,596.6,332.3,577.1z M360.1,660.2h41.5c8.1,25.4,19.2,47.8,32.6,65.6C403.9,711.2,378.2,688.4,360.1,660.2z
			 M498.1,741.6c-28.5-7.6-53-38.2-67.9-81.4h67.9V741.6z M498.1,632.5h-75.7c-3.9-17.3-6.4-35.9-7.2-55.4h82.9V632.5z M498.1,549.3
			h-82.9c0.8-19.5,3.3-38.2,7.2-55.4h75.7V549.3z M498.1,466.2h-67.9c14.9-43.2,39.4-73.8,67.9-81.4V466.2z M663.9,466.2h-41.5
			c-8.1-25.4-19.2-47.8-32.7-65.6C620.1,415.2,645.8,438,663.9,466.2z M525.9,384.8c28.5,7.6,53,38.2,67.9,81.4h-67.9V384.8z
			 M525.9,493.9h75.7c3.9,17.3,6.3,35.9,7.2,55.4h-82.9V493.9z M525.9,577.1h82.9c-0.8,19.5-3.3,38.2-7.2,55.4h-75.7V577.1z
			 M525.9,741.6v-81.4h67.9C578.9,703.4,554.3,734,525.9,741.6z M589.8,725.8c13.4-17.8,24.5-40.1,32.7-65.6h41.5
			C645.8,688.4,620.1,711.2,589.8,725.8z M678.4,632.5h-48.7c3.7-17.5,6.1-36.1,6.8-55.4h55.2C690.2,596.6,685.6,615.2,678.4,632.5z
			 M636.5,549.3c-0.7-19.3-3.1-37.9-6.8-55.4h48.7c7.2,17.3,11.8,35.9,13.3,55.4H636.5z"/>
	</g>
</g>
</svg>
